<svg xmlns="http://www.w3.org/2000/svg" viewBox="0 0 100 100" width="100" height="100" role="img" aria-label="Copine en cuisine"><title>Copine en cuisine</title><rect width="100" height="100" rx="22" fill="#C0265E"/><g fill="none" stroke="#FFFFFF"><circle cx="50" cy="50" r="35.07" stroke-width="0.85"/><circle cx="50" cy="50" r="31.59" stroke-width="0.57" stroke-opacity=".45"/></g><g fill="#FFFFFF"><path transform="translate(35.13 64.31)" d="M14.61 0.6Q10.66 0.6 8.13 -0.76Q5.61 -2.11 4.34 -4.37Q3.08 -6.62 2.78 -9.26Q2.48 -11.9 2.94 -14.52Q3.58 -17.92 5.24 -20.63Q6.89 -23.34 9.26 -25.25Q11.62 -27.16 14.38 -28.19Q17.14 -29.22 19.94 -29.22Q21.83 -29.22 23.73 -28.81Q25.64 -28.4 26.7 -27.71Q27.02 -27.48 27.06 -27.29Q27.11 -27.11 27.06 -26.6L26.51 -21.18Q26.47 -21 26.24 -21Q26.01 -21 26.01 -21.18Q25.55 -24.77 23.43 -26.44Q21.32 -28.12 18.2 -28.12Q15.3 -28.12 12.93 -26.63Q10.57 -25.13 8.98 -22.4Q7.4 -19.67 6.8 -15.9Q6.29 -12.68 6.62 -9.83Q6.94 -6.98 8.02 -4.8Q9.1 -2.62 10.84 -1.38Q12.59 -0.14 14.89 -0.14Q17.37 -0.14 19.83 -1.84Q22.28 -3.54 24.54 -7.08Q24.63 -7.21 24.86 -7.12Q25.09 -7.03 25 -6.89L23.66 -1.84Q23.53 -1.29 23.39 -1.08Q23.25 -0.87 22.84 -0.78Q20.63 -0.05 18.49 0.28Q16.36 0.6 14.61 0.6Z"/></g></svg>
