<svg xmlns="http://www.w3.org/2000/svg" viewBox="0 0 100 100" width="100" height="100" role="img" aria-label="Copine en cuisine"><title>Copine en cuisine</title><g fill="none" stroke="#C0265E"><circle cx="50" cy="50" r="47.42" stroke-width="1.15"/><circle cx="50" cy="50" r="42.72" stroke-width="0.77" stroke-opacity=".45"/></g><g fill="#C0265E"><path transform="translate(29.89 69.35)" d="M19.76 0.81Q14.41 0.81 11 -1.03Q7.58 -2.86 5.87 -5.9Q4.16 -8.95 3.76 -12.52Q3.35 -16.09 3.98 -19.63Q4.85 -24.23 7.08 -27.89Q9.32 -31.56 12.52 -34.14Q15.72 -36.72 19.45 -38.11Q23.17 -39.51 26.96 -39.51Q29.51 -39.51 32.09 -38.95Q34.67 -38.39 36.1 -37.46Q36.53 -37.15 36.59 -36.9Q36.65 -36.65 36.59 -35.97L35.85 -28.64Q35.78 -28.39 35.47 -28.39Q35.16 -28.39 35.16 -28.64Q34.54 -33.49 31.68 -35.75Q28.83 -38.02 24.6 -38.02Q20.69 -38.02 17.49 -36Q14.29 -33.98 12.15 -30.29Q10 -26.59 9.19 -21.5Q8.51 -17.15 8.95 -13.3Q9.38 -9.44 10.84 -6.49Q12.3 -3.54 14.66 -1.86Q17.02 -0.19 20.13 -0.19Q23.48 -0.19 26.81 -2.49Q30.13 -4.78 33.18 -9.57Q33.3 -9.75 33.61 -9.63Q33.92 -9.51 33.8 -9.32L32 -2.49Q31.81 -1.74 31.62 -1.46Q31.44 -1.18 30.88 -1.06Q27.89 -0.06 25.01 0.37Q22.12 0.81 19.76 0.81Z"/></g></svg>
